<svg width="70" height="70" viewBox="0 0 70 70" fill="none" xmlns="http://www.w3.org/2000/svg">
<path d="M58.837 8.71972C49.285 0.0585395 35.9489 -2.08438 24.3432 1.99677C24.1762 1.91681 24.0098 1.83446 23.8421 1.75449C23.399 1.54265 23.005 2.08509 23.2667 2.39719C20.8184 3.349 18.4551 4.57591 16.2331 6.08986C16.211 6.0809 16.1888 6.07076 16.1667 6.06181C15.8822 5.94425 15.6571 6.23188 15.6637 6.49147C14.9518 6.99751 14.2518 7.52563 13.5716 8.08955C13.2663 8.34317 13.2022 8.65467 13.2854 8.93395C2.53178 15.4206 -1.72956 30.3697 0.632534 42.1196C3.42214 55.9988 15.7571 66.5767 29.4009 69.2901C36.8662 70.7748 44.5962 70.0909 50.9699 65.7054C57.4592 61.2412 63.5468 55.5464 66.8615 48.3138C73.0688 34.7725 69.902 18.7522 58.837 8.71972ZM59.6351 12.2137C59.6291 12.2196 59.6225 12.2232 59.6159 12.2298C59.3938 12.453 59.1765 12.6785 58.9555 12.9029C53.2727 8.69943 46.7295 5.27649 40.2803 2.14954C45.0632 2.75882 49.7293 4.42851 53.8751 7.23501C56.0192 8.6857 57.9436 10.3626 59.6351 12.2137ZM37.741 1.92516C44.4459 5.92336 50.9855 10.3291 57.8185 14.0612C57.5478 14.3381 57.2742 14.6132 57.0048 14.8907C56.8305 14.7833 56.609 14.7373 56.3426 14.7528C48.6731 10.2343 40.6779 6.10239 32.7336 2.05227C34.3969 1.8822 36.0717 1.84341 37.741 1.92516ZM30.9912 2.27665C39.1403 7.053 47.3935 11.8568 55.8198 16.114C55.2552 16.6982 54.69 17.2818 54.1272 17.8661C52.1578 16.0925 49.5556 14.985 47.2385 13.7187C44.7327 12.3497 42.2197 10.9951 39.6858 9.67809C35.4214 7.46178 31.1319 5.29559 26.8107 3.19146C28.1849 2.79343 29.583 2.49565 30.9912 2.27665ZM25.4725 3.60918C29.9889 6.00631 34.4975 8.41955 38.9703 10.8972C41.4665 12.2799 43.9663 13.6578 46.4553 15.0542C48.6815 16.3032 50.8945 17.8798 53.326 18.6961C52.8674 19.1717 52.4081 19.6497 51.9495 20.1235C42.1628 14.899 32.3193 9.57485 22.2602 4.8719C23.3104 4.3933 24.384 3.97499 25.4725 3.60918ZM21.4016 5.2747C30.9966 10.9492 41.0006 16.0758 50.8927 21.209C50.4969 21.6154 50.1029 22.0242 49.7053 22.4282C49.4934 22.0833 49.315 22.0152 48.8755 21.9729C39.0146 16.4172 28.7794 11.3866 18.3443 6.9802C19.3353 6.35481 20.3567 5.78671 21.4016 5.2747ZM17.4492 7.56203C28.0005 12.5986 38.3769 17.8893 48.6318 23.5089C48.2061 23.9368 47.7851 24.3706 47.3558 24.7943C42.4939 21.7151 36.8572 19.488 31.6726 16.9805C26.6041 14.529 21.5494 12.0161 16.3996 9.73837C16.2553 9.67451 16.1217 9.70196 16.0211 9.77178C15.8499 9.50742 15.6864 9.23769 15.5134 8.97453C16.1433 8.47684 16.79 8.0078 17.4492 7.56203ZM31.9145 32.4989C30.3518 31.565 28.8435 30.4807 27.2358 29.619C26.679 28.5311 26.1168 27.4462 25.5509 26.3619C29.3602 28.8993 33.4006 31.6945 37.5644 33.5414C37.0039 33.9746 36.4369 34.4019 35.8615 34.8214C34.6077 33.9615 33.212 33.274 31.9145 32.4989ZM34.843 35.5471C33.7204 36.3348 32.5737 37.0998 31.3864 37.8248C30.3057 35.6766 29.2219 33.5199 28.1274 31.3651C29.0758 32.0406 30.0715 32.6612 31.0409 33.2752C32.2636 34.0498 33.5156 34.9097 34.843 35.5471ZM25.0671 25.4412C24.4534 24.2745 23.8289 23.1138 23.2002 21.9556C26.6544 23.6366 30.1314 25.2502 33.5276 27.0518C35.2161 27.9475 36.901 28.8492 38.5853 29.7515C39.2852 30.1262 40.0091 30.6179 40.7797 30.902C40.0031 31.5656 39.2223 32.225 38.4206 32.8629C34.4862 29.9054 29.4746 27.6366 25.0671 25.4412ZM22.9326 21.283C22.8979 21.2699 22.8649 21.2669 22.8338 21.2705C22.0428 19.8228 21.2309 18.3882 20.4088 16.9608C24.278 19.0745 28.3765 20.8229 32.3438 22.7277C36.1405 24.5514 39.8911 26.5595 43.7555 28.2488C43.1023 28.851 42.4466 29.4507 41.7784 30.0373C35.4849 27.1401 29.4447 23.7679 22.9326 21.283ZM31.9978 21.0557C27.9795 19.2081 23.9355 17.2317 19.7388 15.8037C18.7335 14.0875 17.6923 12.3963 16.6277 10.7224C21.3662 13.6268 26.5335 15.9517 31.487 18.4532C36.3543 20.9118 41.2509 23.8186 46.3559 25.7753C45.8595 26.2575 45.3632 26.7391 44.8608 27.2135C40.7276 24.9071 36.2914 23.0297 31.9978 21.0557ZM66.7387 43.2427C64.5766 50.4299 60.0842 55.7863 54.4637 60.5961C51.4854 63.1448 48.3701 65.6863 44.6225 67.0129C41.0857 68.2649 37.1955 68.4582 33.4791 68.1449C20.3442 67.0368 7.61462 58.2264 3.32693 45.5837C1.14567 39.1526 1.2768 32.1307 3.37364 25.6978C5.43755 19.3663 9.34443 14.4664 14.3033 10.2176C19.2281 20.2906 24.8827 30.0218 29.9219 40.0435C30.2015 40.5997 30.9912 40.7549 31.5032 40.4565C42.8927 33.8189 52.738 23.9905 60.9979 13.81C67.5117 21.94 69.8487 32.9053 66.7387 43.2427Z" fill="#FEFEFE"/>
</svg>
